<svg width="93" height="60" viewBox="0 0 93 60" fill="none" xmlns="http://www.w3.org/2000/svg">
<path d="M0 12.2587H8.64507L15.3254 27.9055L22.3331 12.2587H34.3183V43.922C34.3183 43.922 29.2754 40.5339 28.162 39.4867C27.0486 38.4394 26.5901 22.7926 26.5901 22.7926L17.1592 41.1499L13.4915 41.2731L0 12.2587Z" fill="#0563DF"/>
<path d="M30.9127 9.60985C33.1914 9.60985 35.0387 8.17569 35.0387 6.40656C35.0387 4.63744 33.1914 3.20328 30.9127 3.20328C28.6339 3.20328 26.7866 4.63744 26.7866 6.40656C26.7866 8.17569 28.6339 9.60985 30.9127 9.60985Z" fill="#0563DF"/>
<path d="M37.069 12.8747H45.7141L55.538 33.2649L72.6972 0L80.4254 0.492813L56.8479 48.2341H54.0972L37.069 12.8747Z" fill="#0563DF"/>
<path d="M84.3549 39.7331C80.4253 41.0883 76.8232 41.0267 73.4831 39.6099C70.1429 38.193 67.7197 35.6057 66.2789 31.848L66.0169 31.1704C65.0345 28.6448 64.707 26.2423 64.969 23.8398C65.231 21.499 66.0824 19.4661 67.5887 17.7413C69.0951 16.0164 71.0598 14.7228 73.4831 13.922C77.1507 12.6899 80.4253 12.7515 83.3725 14.23C86.3197 15.7084 88.5465 18.4189 90.1183 22.3614L91.1662 25.1335L74.138 30.9856C74.9894 32.5257 76.2338 33.6345 77.7401 34.2505C79.312 34.8665 80.9493 34.8665 82.7176 34.2505C85.4683 33.3265 87.2366 31.6632 88.088 29.2608L93 31.7248C92.476 33.5113 91.4937 35.1129 89.9218 36.5298C88.481 37.885 86.5817 38.9938 84.3549 39.7331ZM75.5789 19.3429C74.138 19.8357 73.2211 20.6981 72.6317 21.8686C72.1077 23.1006 72.0422 24.579 72.4352 26.3039L82.3901 22.9158L82.1937 22.3614C81.6042 20.8829 80.6873 19.8973 79.5739 19.3429C78.3951 18.8501 77.0852 18.8501 75.5789 19.3429Z" fill="#F13190"/>
</svg>
